<svg width="56" height="56" viewBox="0 0 56 56" fill="none" xmlns="http://www.w3.org/2000/svg">
<path d="M28.4965 8C25.8049 8 23.1396 8.53016 20.6529 9.56021C18.1661 10.5903 15.9066 12.1 14.0033 14.0033C10.1595 17.8471 8 23.0605 8 28.4965C8 37.556 13.8825 45.2422 22.0196 47.9683C23.0445 48.1322 23.3724 47.4968 23.3724 46.9434V43.4795C17.6949 44.7093 16.4856 40.733 16.4856 40.733C15.5427 38.3554 14.2105 37.72 14.2105 37.72C12.3453 36.4492 14.3539 36.4902 14.3539 36.4902C16.4036 36.6337 17.4899 38.6013 17.4899 38.6013C19.2731 41.7168 22.2861 40.7945 23.4544 40.3025C23.6389 38.9703 24.1718 38.0684 24.7457 37.556C20.1954 37.0436 15.4197 35.2809 15.4197 27.4717C15.4197 25.1966 16.1986 23.3724 17.5309 21.9172C17.3259 21.4047 16.6085 19.2731 17.7359 16.5061C17.7359 16.5061 19.4576 15.9527 23.3724 18.5967C24.9916 18.1458 26.7543 17.9203 28.4965 17.9203C30.2387 17.9203 32.0014 18.1458 33.6207 18.5967C37.5355 15.9527 39.2572 16.5061 39.2572 16.5061C40.3845 19.2731 39.6672 21.4047 39.4622 21.9172C40.7945 23.3724 41.5733 25.1966 41.5733 27.4717C41.5733 35.3014 36.7771 37.0231 32.2064 37.5355C32.9443 38.1709 33.6207 39.4212 33.6207 41.3274V46.9434C33.6207 47.4968 33.9486 48.1527 34.9939 47.9683C43.1311 45.2217 48.9931 37.556 48.9931 28.4965C48.9931 25.8049 48.4629 23.1396 47.4329 20.6529C46.4028 18.1661 44.8931 15.9066 42.9898 14.0033C41.0865 12.1 38.827 10.5903 36.3402 9.56021C33.8535 8.53016 31.1882 8 28.4965 8Z" fill="black"/>
<rect x="0.5" y="0.5" width="55" height="55" rx="9.5" stroke="#001524"/>
</svg>
