<svg width="15" height="15" viewBox="0 0 15 15" fill="none" xmlns="http://www.w3.org/2000/svg">
<g clip-path="url(#clip0_274_279)">
<path d="M0.938034 2.875C1.06126 2.87481 1.18331 2.9006 1.29716 2.95089C1.411 3.00117 1.51439 3.07496 1.60136 3.16801L7.50566 9.46066L13.41 3.16801C13.5869 2.98585 13.8239 2.88505 14.0699 2.88733C14.3159 2.88961 14.5512 2.99478 14.7252 3.18019C14.8992 3.3656 14.9978 3.61642 15 3.87862C15.0021 4.14083 14.9075 4.39343 14.7366 4.58204L8.16899 11.5822C7.99305 11.7697 7.75445 11.875 7.50566 11.875C7.25688 11.875 7.01828 11.7697 6.84233 11.5822L0.274702 4.58204C0.143529 4.44219 0.0542037 4.26402 0.0180185 4.07006C-0.0181678 3.8761 0.000412704 3.67506 0.071409 3.49236C0.142405 3.30966 0.262629 3.15349 0.416884 3.0436C0.571139 2.93372 0.752498 2.87504 0.938034 2.875Z" fill="black"/>
</g>
<defs>
<clipPath id="clip0_274_279">
<rect width="15" height="15" fill="white"/>
</clipPath>
</defs>
</svg>
